# xmcd
#
# Track frame offsets:
#	150
#	21127
#	47990
#	66350
#	85447
#	105872
#	130597
#	154982
#
# Disc length: 2288 seconds
#
# Revision: 0
# Processed by: cddbd v1.4PL0 Copyright (c) Steve Scherf et al.
# Submitted via: dBpowerAMP V4.0
#
DISCID=6308ee08
DTITLE=Lou Rawls - Let Me Be Good To You
DYEAR=1900
DGENRE=Soul
TTITLE0=Time Will Take Care Of Everything
TTITLE1=What's The Matter With This World
TTITLE2=Tomorrow
TTITLE3=We Keep Getting Closer
TTITLE4=Bark, Bite
TTITLE5=Let Me Be Good To You
TTITLE6=Lover's Holiday
TTITLE7=Sweet Tender Nights
EXTD=
EXTT0=
EXTT1=
EXTT2=
EXTT3=
EXTT4=
EXTT5=
EXTT6=
EXTT7=
PLAYORDER=
